HIERARCHY
ROOT Hips
{
	OFFSET 0.000000 0.000000 0.000000
	CHANNELS 6 Xposition Yposition Zposition Zrotation Yrotation Xrotation 
	JOINT LHipJoint
	{
		OFFSET 0.000000 0.000000 0.000000
		CHANNELS 3 Zrotation Yrotation Xrotation
		JOINT LeftUpLeg
		{
			OFFSET 1.363060 -1.794630 0.839290
			CHANNELS 3 Zrotation Yrotation Xrotation
			JOINT LeftLeg
			{
				OFFSET 2.448110 -6.726130 0.000000
				CHANNELS 3 Zrotation Yrotation Xrotation
				JOINT LeftFoot
				{
					OFFSET 2.562200 -7.039590 0.000000
					CHANNELS 3 Zrotation Yrotation Xrotation
					JOINT LeftToeBase
					{
						OFFSET 0.157640 -0.433110 2.322550
						CHANNELS 3 Zrotation Yrotation Xrotation
						End Site
						{
							OFFSET 0.000000 0.000000 0.000000
						}
					}
				}
			}
		}
	}
	JOINT RHipJoint
	{
		OFFSET 0.000000 0.000000 0.000000
		CHANNELS 3 Zrotation Yrotation Xrotation
		JOINT RightUpLeg
		{
			OFFSET -1.305520 -1.794630 0.839290
			CHANNELS 3 Zrotation Yrotation Xrotation
			JOINT RightLeg
			{
				OFFSET -2.542530 -6.985550 0.000000
				CHANNELS 3 Zrotation Yrotation Xrotation
				JOINT RightFoot
				{
					OFFSET -2.568260 -7.056230 0.000000
					CHANNELS 3 Zrotation Yrotation Xrotation
					JOINT RightToeBase
					{
						OFFSET -0.164730 -0.452590 2.363150
						CHANNELS 3 Zrotation Yrotation Xrotation
						End Site
						{
							OFFSET 0.000000 0.000000 0.000000
						}
					}
				}
			}
		}
	}
	JOINT LowerBack
	{
		OFFSET 0.000000 0.000000 0.000000
		CHANNELS 3 Zrotation Yrotation Xrotation
		JOINT Spine
		{
			OFFSET 0.028270 2.035590 -0.193380
			CHANNELS 3 Zrotation Yrotation Xrotation
			JOINT Spine1
			{
				OFFSET 0.056720 2.048850 -0.042750
				CHANNELS 3 Zrotation Yrotation Xrotation
				JOINT Neck
				{
					OFFSET 0.000000 0.000000 0.000000
					CHANNELS 3 Zrotation Yrotation Xrotation
					JOINT Neck1
					{
						OFFSET -0.054170 1.746240 0.172020
						CHANNELS 3 Zrotation Yrotation Xrotation
						JOINT Head
						{
							OFFSET 0.104070 1.761360 -0.123970
							CHANNELS 3 Zrotation Yrotation Xrotation
							End Site
							{
								OFFSET 0.000000 0.000000 0.000000
							}
						}
					}
				}
				JOINT LeftShoulder
				{
					OFFSET 0.000000 0.000000 0.000000
					CHANNELS 3 Zrotation Yrotation Xrotation
					JOINT LeftArm
					{
						OFFSET 3.362410 1.200890 -0.311210
						CHANNELS 3 Zrotation Yrotation Xrotation
						JOINT LeftForeArm
						{
							OFFSET 4.983000 -0.000000 -0.000000
							CHANNELS 3 Zrotation Yrotation Xrotation
							JOINT LeftHand
							{
								OFFSET 3.483560 -0.000000 -0.000000
								CHANNELS 3 Zrotation Yrotation Xrotation
								JOINT LeftFingerBase
								{
									OFFSET 0.000000 0.000000 0.000000
									CHANNELS 3 Zrotation Yrotation Xrotation
									JOINT LeftHandIndex1
									{
										OFFSET 0.715260 -0.000000 -0.000000
										CHANNELS 3 Zrotation Yrotation Xrotation
										End Site
										{
											OFFSET 0.000000 0.000000 0.000000
										}
									}
								}
								JOINT LThumb
								{
									OFFSET 0.000000 0.000000 0.000000
									CHANNELS 3 Zrotation Yrotation Xrotation
									End Site
									{
										OFFSET 0.000000 0.000000 0.000000
									}
								}
							}
						}
					}
				}
				JOINT RightShoulder
				{
					OFFSET 0.000000 0.000000 0.000000
					CHANNELS 3 Zrotation Yrotation Xrotation
					JOINT RightArm
					{
						OFFSET -3.136600 1.374050 -0.404650
						CHANNELS 3 Zrotation Yrotation Xrotation
						JOINT RightForeArm
						{
							OFFSET -5.241900 -0.000000 -0.000000
							CHANNELS 3 Zrotation Yrotation Xrotation
							JOINT RightHand
							{
								OFFSET -3.444170 -0.000000 -0.000000
								CHANNELS 3 Zrotation Yrotation Xrotation
								JOINT RightFingerBase
								{
									OFFSET 0.000000 0.000000 0.000000
									CHANNELS 3 Zrotation Yrotation Xrotation
									JOINT RightHandIndex1
									{
										OFFSET -0.622530 -0.000000 -0.000000
										CHANNELS 3 Zrotation Yrotation Xrotation
										End Site
										{
											OFFSET 0.000000 0.000000 0.000000
										}
									}
								}
								JOINT RThumb
								{
									OFFSET 0.000000 0.000000 0.000000
									CHANNELS 3 Zrotation Yrotation Xrotation
									End Site
									{
										OFFSET 0.000000 0.000000 0.000000
									}
								}
							}
						}
					}
				}
			}
		}
	}
}
MOTION
Frames: 9
Frame Time: 0.008333
-1.945493 16.949033 -0.563458 8.250976 53.802159 18.950256 -11.138040 5.921272 -1.283706 -10.449752 23.980160 -9.553220 -1.836978 2.103811 32.785265 0.356456 -0.459602 9.374524 -0.172401 -0.000000 -78.015700 7.912666 -1.234161 6.165520 18.188552 8.680860 -23.011120 3.363302 2.671348 -2.640999 -1.383016 -5.485828 -6.042980 -0.846500 -0.000001 -6.343900 -0.403500 -7.027594 -7.451572 0.122023 -7.232324 -3.728890 -4.783674 -7.369132 2.337189 10.744878 -21.442135 -10.790395 -2.731246 -0.174746 -0.726624 0.000000 0.000000 0.000000 -0.001378 5.150884 0.198534 -64.630663 -4.525645 -6.974231 -1.725155 -60.369182 -0.054801 14.253632 -0.605365 -0.105446 -0.152273 0.242222 -0.000000 0.000000 0.000000 0.000000 0.000000 0.000000 0.000000 16.021343 -21.076692 0.209998 56.025481 -8.052880 -25.686874 2.211819 47.591801 0.007654 -4.090825 6.185779 -0.233714 0.150418 -0.139838 -0.000000 0.000000 0.000000 0.000000 0.000000 0.000000 0.000000 
-1.838262 16.953021 -0.489249 7.560858 52.954133 18.327668 -11.267116 5.898540 -1.368740 -9.697876 24.334923 -10.327128 -1.672727 2.255196 34.890607 0.350998 -1.691079 11.030823 -0.574900 0.000000 -77.843600 7.819090 -1.264905 6.246296 18.522817 9.299076 -22.480674 3.419934 2.622448 -2.211599 -1.325954 -5.112683 -6.294369 -0.767801 0.000000 -3.005100 -0.135396 -6.945467 -7.455322 0.168971 -7.180034 -3.732663 -4.795930 -7.317857 2.335371 10.788829 -21.366116 -10.779078 -2.744011 -0.176294 -0.723783 0.000000 0.000000 0.000000 -0.074947 5.225947 0.194180 -65.369142 -4.316049 -7.116091 -1.753012 -59.762746 -0.053463 14.197618 -0.589116 -0.102393 -0.149806 0.237057 -0.000000 0.000000 0.000000 0.000000 0.000000 0.000000 0.000000 16.095037 -20.964910 0.197649 55.598530 -7.356382 -25.536365 2.182508 47.974776 0.007196 -4.108046 6.115519 -0.232113 0.149867 -0.142291 -0.000000 0.000000 0.000000 0.000000 0.000000 0.000000 0.000000 
-1.735231 16.956266 -0.414054 6.952660 52.152915 17.789485 -11.372846 5.854813 -1.434743 -8.996273 24.517746 -11.130579 -1.510884 2.395580 37.018277 0.366299 -2.810349 12.523036 -1.000899 0.000000 -76.733000 7.739587 -1.285501 6.294568 18.862128 9.785128 -21.944080 3.482623 2.581024 -1.821210 -1.255833 -4.661190 -6.578943 -0.679900 0.000000 -0.010100 0.082044 -6.877652 -7.444326 0.203401 -7.137208 -3.731703 -4.819075 -7.275551 2.333433 10.864305 -21.303347 -10.776895 -2.759381 -0.177886 -0.723530 0.000000 0.000000 0.000000 -0.107834 5.267563 0.193964 -66.067726 -4.076034 -7.239973 -1.779468 -59.134131 -0.052135 14.142043 -0.560051 -0.097644 -0.147106 0.231705 -0.000000 0.000000 0.000000 0.000000 0.000000 0.000000 0.000000 16.214032 -20.873017 0.183327 55.232464 -6.612773 -25.348009 2.151704 48.387943 0.006760 -4.106346 6.043710 -0.229413 0.149038 -0.144591 -0.000000 0.000000 0.000000 0.000000 0.000000 0.000000 0.000000 
-1.636018 16.958753 -0.338160 6.413284 51.402723 17.329156 -11.455363 5.791239 -1.479353 -8.352661 24.520584 -11.968703 -1.352534 2.525588 39.146011 0.400044 -3.694778 13.785389 -1.389500 0.000000 -74.993200 7.671754 -1.296478 6.315620 19.201576 10.152837 -21.394231 3.550276 2.551429 -1.497296 -1.176109 -4.150721 -6.888721 179.411900 0.000000 -2.739100 0.257738 -6.822800 -7.425005 0.227056 -7.103402 -3.727477 -4.853565 -7.241761 2.331620 10.968416 -21.246226 -10.783990 -2.778428 -0.179625 -0.725887 0.000000 0.000000 0.000000 -0.109090 5.288396 0.198628 -66.721125 -3.821762 -7.332200 -1.805357 -58.482519 -0.050816 14.089319 -0.525700 -0.092398 -0.144257 0.226238 -0.000000 0.000000 0.000000 0.000000 0.000000 0.000000 0.000000 16.378979 -20.791289 0.166261 54.919672 -5.839656 -25.120487 2.119276 48.838671 0.006359 -4.093562 5.976438 -0.226212 0.147997 -0.146750 -0.000000 0.000000 0.000000 0.000000 0.000000 0.000000 0.000000 
-1.540382 16.960574 -0.261491 5.948986 50.705556 16.957792 -11.512777 5.711184 -1.498332 -7.790017 24.332084 -12.852319 -1.197947 2.647029 41.267184 0.447433 -4.227079 14.733451 -1.670500 0.000000 -72.370200 7.617606 -1.300150 6.313934 19.526432 10.403175 -20.842919 3.620651 2.533777 -1.247775 -1.086914 -3.589863 -7.198679 179.501800 0.000000 -5.128500 0.388438 -6.780859 -7.408251 0.239651 -7.078521 -3.722298 -4.898250 -7.216521 2.329320 11.096877 -21.198078 -10.798543 -2.801171 -0.181562 -0.730234 0.000000 0.000000 0.000000 -0.088035 5.278971 0.207534 -67.321348 -3.537856 -7.394678 -1.830052 -57.826793 -0.049493 14.040564 -0.490191 -0.086954 -0.141238 0.220629 -0.000000 0.000000 0.000000 0.000000 0.000000 0.000000 0.000000 16.584710 -20.723172 0.147082 54.659399 -5.039459 -24.856910 2.086027 49.317723 0.006002 -4.075200 5.921456 -0.223210 0.146837 -0.148819 -0.000000 0.000000 0.000000 0.000000 0.000000 0.000000 0.000000 
-1.447952 16.961982 -0.184162 5.548613 50.058807 16.667613 -11.547450 5.616424 -1.491679 -7.308706 23.962560 -13.782074 -1.045305 2.760464 43.352736 0.507342 -4.310127 15.355108 -1.785700 0.000000 -69.264600 7.575471 -1.297678 6.295296 19.831458 10.554192 -20.288276 3.691892 2.529737 -1.089090 -0.991487 -3.000252 -7.491916 179.585000 0.000000 -7.206400 0.481069 -6.749004 -7.399526 0.242576 -7.060595 -3.717376 -4.952804 -7.197899 2.326983 11.245869 -21.149467 -10.818790 -2.828282 -0.183789 -0.736103 0.000000 0.000000 0.000000 -0.052527 5.254065 0.220670 -67.869539 -3.238866 -7.420725 -1.854338 -57.162097 -0.048162 13.998691 -0.462280 -0.082610 -0.138132 0.214925 -0.000000 0.000000 0.000000 0.000000 0.000000 0.000000 0.000000 16.828880 -20.656788 0.124991 54.447149 -4.229936 -24.560637 2.051891 49.825161 0.005685 -4.060392 5.883242 -0.221006 0.145627 -0.150823 -0.000000 0.000000 0.000000 0.000000 0.000000 0.000000 0.000000 
-1.358407 16.963214 -0.106148 5.208538 49.455963 16.456441 -11.561034 5.508793 -1.459791 -6.911037 23.425649 -14.757225 -0.893222 2.865903 45.381329 0.580413 -3.881342 15.641228 -1.696900 0.000000 -65.988700 7.545542 -1.290664 6.264766 20.108718 10.620403 -19.735055 3.761698 2.538658 -1.024582 -0.891830 -2.397980 -7.750151 179.658100 -0.000000 -8.974400 0.537007 -6.724362 -7.404430 0.236280 -7.047103 -3.713944 -5.015991 -7.183478 2.324740 11.410339 -21.096552 -10.841721 -2.859558 -0.186349 -0.742647 0.000000 0.000000 0.000000 -0.009534 5.218112 0.237294 -68.366498 -2.923338 -7.414413 -1.878179 -56.493492 -0.046808 13.964661 -0.446972 -0.079765 -0.134979 0.209121 -0.000000 0.000000 0.000000 0.000000 0.000000 0.000000 0.000000 17.104086 -20.586706 0.100049 54.284694 -3.419682 -24.237460 2.017265 50.351579 0.005404 -4.055771 5.866641 -0.220201 0.144433 -0.152817 -0.000000 0.000000 0.000000 0.000000 0.000000 0.000000 0.000000 
-1.271529 16.964598 -0.027334 4.922432 48.885966 16.317668 -11.555854 5.389152 -1.404587 -6.591576 22.742121 -15.770085 -0.741192 2.962090 47.325727 0.670461 -2.922494 15.612562 -1.396001 0.000000 -62.611500 7.527502 -1.280187 6.227579 20.352692 10.622897 -19.185663 3.827682 2.559211 -1.053279 -0.790650 -1.802066 -7.958563 179.719200 0.000000 -10.448300 0.558799 -6.703131 -7.426440 0.221359 -7.034660 -3.712756 -5.086582 -7.169966 2.323149 11.585466 -21.032172 -10.864277 -2.894697 -0.189265 -0.749054 0.000000 0.000000 0.000000 0.036134 5.182571 0.256803 -68.817055 -2.597815 -7.380203 -1.901905 -55.817091 -0.045422 13.940209 -0.449368 -0.079219 -0.131840 0.203218 -0.000000 0.000000 0.000000 0.000000 0.000000 0.000000 0.000000 17.402780 -20.503355 0.072005 54.174662 -2.620326 -23.894067 1.982276 50.889154 0.005145 -4.066894 5.872413 -0.220993 0.143296 -0.154843 -0.000000 0.000000 0.000000 0.000000 0.000000 0.000000 0.000000 
-1.187250 16.966427 0.052437 4.688724 48.334603 16.245846 -11.533167 5.258318 -1.329344 -6.343831 21.937134 -16.808132 -0.590612 3.047450 49.162476 0.782323 -1.457033 15.284281 -0.901500 0.000000 -59.184500 7.522574 -1.267245 6.187015 20.556898 10.578473 -18.644754 3.887423 2.588144 -1.161481 -0.689468 -1.223687 -8.107958 179.768200 -0.000000 -11.635400 0.544541 -6.681569 -7.466168 0.197562 -7.019399 -3.714034 -5.162872 -7.153611 2.322373 11.766301 -20.955270 -10.883137 -2.932656 -0.192501 -0.754428 0.000000 0.000000 0.000000 0.081152 5.149593 0.278124 -69.225507 -2.256282 -7.331889 -1.925102 -55.137560 -0.043998 13.925707 -0.469909 -0.080972 -0.128744 0.197177 -0.000000 0.000000 0.000000 0.000000 0.000000 0.000000 0.000000 17.714518 -20.404151 0.041479 54.124701 -1.832845 -23.536669 1.947464 51.422860 0.004896 -4.096532 5.900204 -0.223583 0.142247 -0.156955 -0.000000 0.000000 0.000000 0.000000 0.000000 0.000000 0.000000 
